<svg id="Layer_1" data-name="Layer 1" xmlns="http://www.w3.org/2000/svg" viewBox="0 0 189.52 183.04"><defs><style>.cls-1{fill:#fff;}</style></defs><title>Instagram</title><path class="cls-1" d="M414.08,347.2c-4.86.9-9.41,1.53-14,.95-8.57-1.07-15.13-4.83-18.55-13.23-2.15-5.3-5.36-9.87-10.43-12.89a7.26,7.26,0,0,1-2-1.65c-.51-.62-1.23-1.67-1-2.15a3.16,3.16,0,0,1,2.15-1.35,12.11,12.11,0,0,1,7.58,1.27,21.15,21.15,0,0,1,9.07,8.45,20.34,20.34,0,0,0,8.09,8c6.24,3.15,12.48,2.32,18.67-.2a1.94,1.94,0,0,0,.79-1.29,22.3,22.3,0,0,1,4.31-9.87c.4-.49.81-1,1.34-1.58-.54-.09-.84-.13-1.13-.19-4.59-.95-9.28-1.58-13.76-2.92-10.73-3.21-19-9.51-23.73-20A51.94,51.94,0,0,1,377.39,282c-1.12-11.55.85-22.21,8.83-31.2a1.93,1.93,0,0,0,.28-1.59c-2.52-7.79-1.81-15.44,1-23a2.07,2.07,0,0,1,1.52-1.1,25.47,25.47,0,0,1,5.16.46c6.87,1.46,12.85,4.89,18.7,8.58a3,3,0,0,0,2.07.39,92.37,92.37,0,0,1,45.24,0,3.57,3.57,0,0,0,2.22-.38c4.54-2.32,9-4.87,13.58-7a20.59,20.59,0,0,1,10-2,2.26,2.26,0,0,1,1.72,1c2.79,7.42,3.59,15,1.08,22.65a2.17,2.17,0,0,0,.54,2.43A34.33,34.33,0,0,1,497.38,268a57.39,57.39,0,0,1-.88,22.23,38,38,0,0,1-7.58,16.24c-5.57,6.82-13,10.63-21.33,12.78-4.07,1.05-8.24,1.69-12.39,2.52a1.19,1.19,0,0,0,.18.32,20.54,20.54,0,0,1,5.68,14.35c.19,9.1.05,18.21.05,27.32,0,4.61,2.88,6.66,7.31,5.17,46.48-15.57,73.29-64.67,61-112-11.94-46-56.88-76.71-106.06-69.49C405.55,190,389.54,197,376,208.91c-26.49,23.3-37.4,52.7-31.62,87.5,4.56,27.46,19.64,48.4,43.07,63.33A87.05,87.05,0,0,0,407.11,369c3.58,1.18,6.83-.51,6.92-3.78C414.2,359.27,414.08,353.34,414.08,347.2Zm-16.69-7.43c.21-.22.86-.62,1-1.16.23-.83-1.12-1.87-2.28-1.68a2.25,2.25,0,0,0-1.51,1.14C394.34,338.82,395.77,339.81,397.39,339.77Zm13.77.82,2.28-2.14c-.56-.42-1.09-1.12-1.68-1.18-1-.11-2.2.22-2.21,1.52C409.55,339.28,410.41,339.78,411.16,340.59Zm-20.42-4.4c.2-.23.78-.61.9-1.1.2-.89-1.07-2.27-2.08-2.21a1.76,1.76,0,0,0-1.3,1C388,334.83,389.27,336.07,390.74,336.19Zm13.36,1.37-1.91,2.06a6.74,6.74,0,0,0,2,1.19c.9.14,2.07-.19,1.86-1.4C406,338.81,405,338.36,404.1,337.56Zm-21-9a25.64,25.64,0,0,0,2.51,2.15c.11.07,1.08-.66,1.08-1a1.91,1.91,0,0,0-1.74-2.12C384.51,327.53,384,328,383.08,328.57ZM381.83,326c.52-.85,1-1.42.92-1.55a18.67,18.67,0,0,0-1.76-1.8c-.3.34-.92.84-.85,1A19.76,19.76,0,0,0,381.83,326Zm-3.1-5.16.07-.48a7.45,7.45,0,0,0-1.64-1c-.26-.08-.69.39-1,.61a7.18,7.18,0,0,0,1.42,1.29C377.79,321.45,378.32,321,378.73,320.87Z" transform="translate(-342.88 -186.32)"/><path d="M414.08,347.2c0,6.14.12,12.07-.05,18-.09,3.27-3.34,5-6.92,3.78a87.05,87.05,0,0,1-19.65-9.23C364,344.81,349,323.87,344.39,296.41c-5.78-34.8,5.13-64.2,31.62-87.5,13.53-11.9,29.54-18.92,47.36-21.54,49.18-7.22,94.12,23.46,106.06,69.49,12.28,47.35-14.53,96.45-61,112-4.43,1.49-7.31-.56-7.31-5.17,0-9.11.14-18.22-.05-27.32A20.54,20.54,0,0,0,455.38,322a1.19,1.19,0,0,1-.18-.32c4.15-.83,8.32-1.47,12.39-2.52,8.34-2.15,15.76-6,21.33-12.78a38,38,0,0,0,7.58-16.24,57.39,57.39,0,0,0,.88-22.23,34.33,34.33,0,0,0-8.09-16.77,2.17,2.17,0,0,1-.54-2.43c2.51-7.67,1.71-15.23-1.08-22.65a2.26,2.26,0,0,0-1.72-1,20.59,20.59,0,0,0-10,2c-4.61,2.17-9,4.72-13.58,7a3.57,3.57,0,0,1-2.22.38,92.37,92.37,0,0,0-45.24,0,3,3,0,0,1-2.07-.39c-5.85-3.69-11.83-7.12-18.7-8.58a25.47,25.47,0,0,0-5.16-.46,2.07,2.07,0,0,0-1.52,1.1c-2.79,7.54-3.5,15.19-1,23a1.93,1.93,0,0,1-.28,1.59c-8,9-10,19.65-8.83,31.2a51.94,51.94,0,0,0,4.05,16.59c4.7,10.47,13,16.77,23.73,20,4.48,1.34,9.17,2,13.76,2.92.29.06.59.1,1.13.19-.53.62-.94,1.09-1.34,1.58a22.3,22.3,0,0,0-4.31,9.87,1.94,1.94,0,0,1-.79,1.29c-6.19,2.52-12.43,3.35-18.67.2a20.34,20.34,0,0,1-8.09-8,21.15,21.15,0,0,0-9.07-8.45,12.11,12.11,0,0,0-7.58-1.27,3.16,3.16,0,0,0-2.15,1.35c-.22.48.5,1.53,1,2.15a7.26,7.26,0,0,0,2,1.65c5.07,3,8.28,7.59,10.43,12.89,3.42,8.4,10,12.16,18.55,13.23C404.67,348.73,409.22,348.1,414.08,347.2Z" transform="translate(-342.88 -186.32)"/><path d="M397.39,339.77c-1.62,0-3.05-.95-2.78-1.7a2.25,2.25,0,0,1,1.51-1.14c1.16-.19,2.51.85,2.28,1.68C398.25,339.15,397.6,339.55,397.39,339.77Z" transform="translate(-342.88 -186.32)"/><path d="M411.16,340.59c-.75-.81-1.61-1.31-1.61-1.8,0-1.3,1.19-1.63,2.21-1.52.59.06,1.12.76,1.68,1.18Z" transform="translate(-342.88 -186.32)"/><path d="M390.74,336.19c-1.47-.12-2.73-1.36-2.48-2.28a1.76,1.76,0,0,1,1.3-1c1-.06,2.28,1.32,2.08,2.21C391.52,335.58,390.94,336,390.74,336.19Z" transform="translate(-342.88 -186.32)"/><path d="M404.1,337.56c.89.8,1.87,1.25,2,1.85.21,1.21-1,1.54-1.86,1.4a6.74,6.74,0,0,1-2-1.19Z" transform="translate(-342.88 -186.32)"/><path d="M383.08,328.57c1-.54,1.43-1,1.85-1a1.91,1.91,0,0,1,1.74,2.12c0,.37-1,1.1-1.08,1A25.64,25.64,0,0,1,383.08,328.57Z" transform="translate(-342.88 -186.32)"/><path d="M381.83,326a19.76,19.76,0,0,1-1.69-2.38c-.07-.13.55-.63.85-1a18.67,18.67,0,0,1,1.76,1.8C382.84,324.61,382.35,325.18,381.83,326Z" transform="translate(-342.88 -186.32)"/><path d="M378.73,320.87c-.41.17-.94.58-1.19.45a7.18,7.18,0,0,1-1.42-1.29c.35-.22.78-.69,1-.61a7.45,7.45,0,0,1,1.64,1Z" transform="translate(-342.88 -186.32)"/></svg>