<svg id="Layer_1" data-name="Layer 1" xmlns="http://www.w3.org/2000/svg" viewBox="0 0 135.76 135.66"><defs><style>.cls-1{fill:#fff;}</style></defs><title>Instagram</title><path d="M462.67,155h66.16c.43.08.85.19,1.28.23a33.35,33.35,0,0,1,10.69,2.82c14.56,6.87,22.4,18.39,22.63,34.49.28,20.1.08,40.2.06,60.3a36,36,0,0,1-6.64,21.35c-7.68,10.76-18.25,16.16-31.47,16.2q-29.64.08-59.28,0a35.91,35.91,0,0,1-7.62-.69c-15.34-3.38-25.16-12.71-29.37-27.84-.55-2-.75-4-1.11-6.08V189.64c.22-1.38.37-2.78.67-4.15,3.45-15.34,12.75-25.17,27.92-29.38C458.57,155.56,460.64,155.36,462.67,155Zm88.82,67.83q0-14.73,0-29.48a26.75,26.75,0,0,0-1.36-9.09C546.3,173.54,537.06,167,525.42,167c-19.76,0-39.51-.06-59.27.05a28.62,28.62,0,0,0-8.82,1.37c-10.83,3.64-17.3,13-17.31,24.72,0,19.7-.06,39.4.05,59.09a28.9,28.9,0,0,0,1.35,8.82c3.61,10.77,13,17.29,24.59,17.32q29.78.08,59.54,0a25,25,0,0,0,21.2-10.68,25.38,25.38,0,0,0,4.74-15.52Q551.48,237.51,551.49,222.83Z" transform="translate(-428 -155)"/><path class="cls-1" d="M428,255.76c.36,2,.56,4.1,1.11,6.08,4.21,15.13,14,24.46,29.37,27.84a35.91,35.91,0,0,0,7.62.69q29.64.08,59.28,0c13.22,0,23.79-5.44,31.47-16.2a36,36,0,0,0,6.64-21.35c0-20.1.22-40.2-.06-60.3-.23-16.1-8.07-27.62-22.63-34.49a33.35,33.35,0,0,0-10.69-2.82c-.43,0-.85-.15-1.28-.23h34.93V290.66H428Z" transform="translate(-428 -155)"/><path class="cls-1" d="M462.67,155c-2,.36-4.1.56-6.08,1.11-15.17,4.21-24.47,14-27.92,29.38-.3,1.37-.45,2.77-.67,4.15V155Z" transform="translate(-428 -155)"/><path class="cls-1" d="M551.49,222.83q0,14.68,0,29.35a25.38,25.38,0,0,1-4.74,15.52,25,25,0,0,1-21.2,10.68q-29.77.06-59.54,0c-11.62,0-21-6.55-24.59-17.32a28.9,28.9,0,0,1-1.35-8.82c-.11-19.69-.08-39.39-.05-59.09,0-11.7,6.48-21.08,17.31-24.72a28.62,28.62,0,0,1,8.82-1.37c19.76-.11,39.51-.08,59.27-.05,11.64,0,20.88,6.53,24.7,17.25a26.75,26.75,0,0,1,1.36,9.09Q551.5,208.1,551.49,222.83Zm-55.76,34.76a34.89,34.89,0,1,0-34.9-34.94A35.05,35.05,0,0,0,495.73,257.59Zm36.39-79.93a8.78,8.78,0,1,0,8.83,8.83A8.85,8.85,0,0,0,532.12,177.66Z" transform="translate(-428 -155)"/><path d="M495.73,257.59a34.89,34.89,0,1,1,34.94-34.91A35,35,0,0,1,495.73,257.59Zm22.89-34.84a22.87,22.87,0,1,0-22.92,22.8A22.89,22.89,0,0,0,518.62,222.75Z" transform="translate(-428 -155)"/><path d="M532.12,177.66a8.78,8.78,0,1,1-8.81,8.72A8.86,8.86,0,0,1,532.12,177.66Z" transform="translate(-428 -155)"/><path class="cls-1" d="M518.62,222.75a22.87,22.87,0,1,1-22.82-22.91A22.87,22.87,0,0,1,518.62,222.75Z" transform="translate(-428 -155)"/></svg>